<svg width="240" height="240" viewBox="0 0 240 240" fill="none" xmlns="http://www.w3.org/2000/svg">
<rect width="240" height="240" rx="45" fill="#3CC2FF"/>
<g clip-path="url(#clip0_136_1754)">
<path d="M202.95 165.78C190.2 154.88 177.92 147.32 166.17 143.09C166.13 142.58 166.01 142.07 165.8 141.6C163.4 136.13 162.03 130.55 161.73 125.02C160.87 108.87 168.74 93.56 172.97 85.33C174.28 82.78 175.39 80.84 176.28 79.29C178.36 75.66 180 72.8 178.37 69.6C176.16 65.25 170.27 65.48 158.04 70.42C149.75 73.77 139.4 79.1 131.03 84.34C107.62 98.99 80.61 129.34 63.36 158.1C63.3 158.2 63.26 158.29 63.23 158.38C56.35 156.24 49.4 152.76 42.43 147.92C40.42 146.53 37.67 147.02 36.27 149.03C34.88 151.04 35.37 153.79 37.38 155.19C54.31 166.94 71.37 171.64 88.08 169.13C99.95 167.35 107.8 162.57 115.4 157.94C119.51 155.43 123.4 153.06 127.82 151.25C147.76 143.07 171.1 150.23 197.18 172.52C198.01 173.23 199.04 173.58 200.05 173.58C201.3 173.58 202.54 173.05 203.41 172.03C205 170.17 204.78 167.38 202.92 165.79L202.95 165.78ZM124.48 143.05C119.41 145.13 115.04 147.79 110.81 150.37C103.65 154.73 96.89 158.85 86.79 160.37C80.95 161.24 75.01 161.06 69.03 159.85C69.2 159.59 69.37 159.3 69.57 158.97C85.58 132.22 109.77 106.86 131.23 92.74C131.26 92.72 131.29 92.76 131.28 92.79C129.53 96.49 128.09 101.3 127.58 107.7C126.45 121.82 129.68 133.31 132.58 140.46C129.84 141.1 127.15 141.95 124.49 143.04L124.48 143.05ZM139.17 139.36C136.46 133.41 132.72 122.36 133.84 108.42C134.58 99.1 138.3 90.83 141.05 87.11C141.79 86.11 146.15 83.62 147.2 83.16C152.19 80.99 167.02 74.64 171.01 74.07C171.2 74.46 171.11 74.27 171.3 74.66C170.33 76.35 169.1 78.47 167.6 81.39C163.33 89.69 154.46 106.96 155.45 125.49C155.72 130.62 156.76 135.75 158.54 140.79C151.9 139.19 145.44 138.72 139.17 139.36Z" fill="white" stroke="white" stroke-width="5" stroke-miterlimit="10"/>
</g>
<defs>
<clipPath id="clip0_136_1754">
<rect width="174" height="112.06" fill="white" transform="translate(33 64)"/>
</clipPath>
</defs>
</svg>
