<svg width="24" height="24" viewBox="0 0 24 24" fill="none" xmlns="http://www.w3.org/2000/svg">
<path d="M2.825 12L10.7 19.875C10.8833 20.0583 10.975 20.2875 10.975 20.5625C10.975 20.8375 10.8833 21.075 10.7 21.275C10.5 21.475 10.2625 21.575 9.9875 21.575C9.7125 21.575 9.475 21.475 9.275 21.275L1.05 13.05C0.9 12.9 0.791667 12.7333 0.725 12.55C0.658333 12.3667 0.625 12.1833 0.625 12C0.625 11.8167 0.658333 11.6333 0.725 11.45C0.791667 11.2667 0.9 11.1 1.05 10.95L9.3 2.69999C9.5 2.49999 9.73333 2.40415 10 2.41249C10.2667 2.42082 10.5 2.52499 10.7 2.72499C10.8833 2.92499 10.9792 3.15832 10.9875 3.42499C10.9958 3.69165 10.9 3.92499 10.7 4.12499L2.825 12Z" fill="white"/>
</svg>
