<svg width="25" height="24" viewBox="0 0 25 24" fill="none" xmlns="http://www.w3.org/2000/svg">
<path d="M14.3013 11.9871L22.1534 4.11207C22.3362 3.92874 22.4276 3.69957 22.4276 3.42457C22.4276 3.14957 22.3362 2.91207 22.1534 2.71207C21.954 2.51207 21.7172 2.41207 21.443 2.41207C21.1687 2.41207 20.9319 2.51207 20.7325 2.71207L12.5314 10.9371C12.3819 11.0871 12.2738 11.2537 12.2074 11.4371C12.1409 11.6204 12.1077 11.8037 12.1077 11.9871C12.1077 12.1704 12.1409 12.3537 12.2074 12.5371C12.2738 12.7204 12.3819 12.8871 12.5314 13.0371L20.7574 21.2871C20.9569 21.4871 21.1895 21.5829 21.4554 21.5746C21.7213 21.5662 21.954 21.4621 22.1534 21.2621C22.3362 21.0621 22.4317 20.8287 22.44 20.5621C22.4484 20.2954 22.3528 20.0621 22.1534 19.8621L14.3013 11.9871Z" fill="#8E9398"/>
<path d="M11.2732 11.9872L3.42108 4.11219C3.23828 3.92886 3.14688 3.69969 3.14688 3.42469C3.14688 3.14969 3.23828 2.9122 3.42108 2.71219C3.6205 2.51219 3.85731 2.4122 4.13151 2.4122C4.40571 2.4122 4.64252 2.51219 4.84194 2.71219L13.043 10.9372C13.1926 11.0872 13.3006 11.2539 13.3671 11.4372C13.4336 11.6205 13.4668 11.8039 13.4668 11.9872C13.4668 12.1705 13.4336 12.3539 13.3671 12.5372C13.3006 12.7205 13.1926 12.8872 13.043 13.0372L4.81701 21.2872C4.6176 21.4872 4.38494 21.583 4.11905 21.5747C3.85316 21.5664 3.6205 21.4622 3.42108 21.2622C3.23828 21.0622 3.14273 20.8289 3.13442 20.5622C3.12611 20.2955 3.22167 20.0622 3.42108 19.8622L11.2732 11.9872Z" fill="#8E9398"/>
</svg>
