<svg width="48" height="48" viewBox="0 0 48 48" fill="none" xmlns="http://www.w3.org/2000/svg">
<path d="M12 38H18V28C18 27.4333 18.1917 26.9583 18.575 26.575C18.9583 26.1917 19.4333 26 20 26H28C28.5667 26 29.0417 26.1917 29.425 26.575C29.8083 26.9583 30 27.4333 30 28V38H36V20L24 11L12 20V38ZM8 38V20C8 19.3667 8.14167 18.7667 8.425 18.2C8.70833 17.6333 9.1 17.1667 9.6 16.8L21.6 7.8C22.3 7.26667 23.1 7 24 7C24.9 7 25.7 7.26667 26.4 7.8L38.4 16.8C38.9 17.1667 39.2917 17.6333 39.575 18.2C39.8583 18.7667 40 19.3667 40 20V38C40 39.1 39.6083 40.0417 38.825 40.825C38.0417 41.6083 37.1 42 36 42H28C27.4333 42 26.9583 41.8083 26.575 41.425C26.1917 41.0417 26 40.5667 26 40V30H22V40C22 40.5667 21.8083 41.0417 21.425 41.425C21.0417 41.8083 20.5667 42 20 42H12C10.9 42 9.95833 41.6083 9.175 40.825C8.39167 40.0417 8 39.1 8 38Z" fill="#3CC2FF"/>
</svg>
