<svg width="148" height="96" viewBox="0 0 148 96" fill="none" xmlns="http://www.w3.org/2000/svg">
<g clip-path="url(#clip0_77_393)">
<path d="M144.555 87.1933C133.71 77.8554 123.265 71.3789 113.271 67.7551C113.237 67.3182 113.135 66.8813 112.956 66.4787C110.915 61.7926 109.75 57.0123 109.494 52.2749C108.763 38.4394 115.457 25.3236 119.055 18.2731C120.169 16.0885 121.113 14.4266 121.87 13.0987C123.64 9.98893 125.034 7.53882 123.648 4.79743C121.768 1.07085 116.758 1.26789 106.356 5.49991C99.3046 8.3698 90.5011 12.9359 83.3818 17.425C63.4699 29.9754 40.4959 55.9757 25.8234 80.614C25.7724 80.6996 25.7384 80.7767 25.7129 80.8538C19.8609 79.0205 13.9494 76.0393 8.02092 71.8929C6.31126 70.7021 3.97218 71.1219 2.78138 72.8438C1.59908 74.5658 2.01586 76.9217 3.72552 78.121C18.1257 88.187 32.6366 92.2135 46.8497 90.0632C56.946 88.5383 63.623 84.4433 70.0874 80.4769C73.5832 78.3266 76.892 76.2963 80.6515 74.7457C97.612 67.738 117.464 73.8719 139.647 92.9673C140.353 93.5756 141.229 93.8754 142.089 93.8754C143.152 93.8754 144.206 93.4214 144.946 92.5476C146.299 90.9541 146.112 88.564 144.53 87.2019L144.555 87.1933ZM77.8106 67.7209C73.4982 69.5028 69.7811 71.7816 66.1832 73.9918C60.0931 77.7269 54.3432 81.2565 45.7524 82.5586C40.7851 83.304 35.7326 83.1497 30.6462 82.1132C30.7908 81.8904 30.9354 81.642 31.1055 81.3593C44.7232 58.443 65.2986 36.7175 83.552 24.6211C83.5775 24.604 83.603 24.6382 83.5945 24.6639C82.106 27.8337 80.8812 31.9543 80.4474 37.4371C79.4862 49.5335 82.2336 59.3768 84.7002 65.5021C82.3697 66.0503 80.0816 66.7785 77.8191 67.7123L77.8106 67.7209ZM90.3055 64.5597C88.0005 59.4624 84.8193 49.9961 85.772 38.0539C86.4014 30.0696 89.5655 22.9848 91.9046 19.798C92.534 18.9413 96.2425 16.8081 97.1356 16.4141C101.38 14.5551 113.994 9.11512 117.388 8.62681C117.549 8.96091 117.473 8.79814 117.634 9.13225C116.809 10.58 115.763 12.3962 114.487 14.8977C110.855 22.0082 103.311 36.8031 104.153 52.6775C104.383 57.0723 105.267 61.4671 106.781 65.7848C101.133 64.4141 95.6386 64.0114 90.3055 64.5597Z" fill="white" stroke="white" stroke-width="5" stroke-miterlimit="10"/>
</g>
<defs>
<clipPath id="clip0_77_393">
<rect width="148" height="96" fill="white"/>
</clipPath>
</defs>
</svg>
